<?xml version="1.0" encoding="UTF-8" standalone="no"?>
<!DOCTYPE svg PUBLIC "-//W3C//DTD SVG 1.1//EN"
 "http://www.w3.org/Graphics/SVG/1.1/DTD/svg11.dtd">
<!-- Generated by graphviz version 2.44.0 (0)
 -->
<!-- Title: Tree Pages: 1 -->
<svg width="538pt" height="477pt"
 viewBox="0.00 0.00 537.50 477.00" xmlns="http://www.w3.org/2000/svg" xmlns:xlink="http://www.w3.org/1999/xlink">
<g id="graph0" class="graph" transform="scale(1 1) rotate(0) translate(4 473)">
<title>Tree</title>
<polygon fill="white" stroke="transparent" points="-4,4 -4,-473 533.5,-473 533.5,4 -4,4"/>
<!-- 0 -->
<g id="node1" class="node">
<title>0</title>
<polygon fill="none" stroke="black" points="340,-469 155,-469 155,-401 340,-401 340,-469"/>
<text text-anchor="middle" x="247.5" y="-453.8" font-family="Times,serif" font-size="14.00">CAR_AGE &lt;= 1.5</text>
<text text-anchor="middle" x="247.5" y="-438.8" font-family="Times,serif" font-size="14.00">gini = 0.354</text>
<text text-anchor="middle" x="247.5" y="-423.8" font-family="Times,serif" font-size="14.00">samples = 51075</text>
<text text-anchor="middle" x="247.5" y="-408.8" font-family="Times,serif" font-size="14.00">value = [39359, 11716]</text>
</g>
<!-- 1 -->
<g id="node2" class="node">
<title>1</title>
<polygon fill="none" stroke="black" points="234,-357.5 67,-357.5 67,-304.5 234,-304.5 234,-357.5"/>
<text text-anchor="middle" x="150.5" y="-342.3" font-family="Times,serif" font-size="14.00">gini = 0.11</text>
<text text-anchor="middle" x="150.5" y="-327.3" font-family="Times,serif" font-size="14.00">samples = 15404</text>
<text text-anchor="middle" x="150.5" y="-312.3" font-family="Times,serif" font-size="14.00">value = [14500, 904]</text>
</g>
<!-- 0&#45;&gt;1 -->
<g id="edge1" class="edge">
<title>0&#45;&gt;1</title>
<path fill="none" stroke="black" d="M216.01,-400.88C205.03,-389.34 192.71,-376.39 181.75,-364.86"/>
<polygon fill="black" stroke="black" points="184.2,-362.35 174.77,-357.52 179.12,-367.18 184.2,-362.35"/>
<text text-anchor="middle" x="174.14" y="-378.81" font-family="Times,serif" font-size="14.00">True</text>
</g>
<!-- 2 -->
<g id="node3" class="node">
<title>2</title>
<polygon fill="none" stroke="black" points="437,-365 252,-365 252,-297 437,-297 437,-365"/>
<text text-anchor="middle" x="344.5" y="-349.8" font-family="Times,serif" font-size="14.00">ALL_BUYINS_N &lt;= 1.5</text>
<text text-anchor="middle" x="344.5" y="-334.8" font-family="Times,serif" font-size="14.00">gini = 0.422</text>
<text text-anchor="middle" x="344.5" y="-319.8" font-family="Times,serif" font-size="14.00">samples = 35671</text>
<text text-anchor="middle" x="344.5" y="-304.8" font-family="Times,serif" font-size="14.00">value = [24859, 10812]</text>
</g>
<!-- 0&#45;&gt;2 -->
<g id="edge2" class="edge">
<title>0&#45;&gt;2</title>
<path fill="none" stroke="black" d="M278.99,-400.88C287.55,-391.89 296.91,-382.04 305.82,-372.68"/>
<polygon fill="black" stroke="black" points="308.48,-374.96 312.83,-365.3 303.41,-370.13 308.48,-374.96"/>
<text text-anchor="middle" x="313.46" y="-386.59" font-family="Times,serif" font-size="14.00">False</text>
</g>
<!-- 3 -->
<g id="node4" class="node">
<title>3</title>
<polygon fill="none" stroke="black" points="335.5,-261 159.5,-261 159.5,-193 335.5,-193 335.5,-261"/>
<text text-anchor="middle" x="247.5" y="-245.8" font-family="Times,serif" font-size="14.00">IS_LOAN &lt;= 0.5</text>
<text text-anchor="middle" x="247.5" y="-230.8" font-family="Times,serif" font-size="14.00">gini = 0.461</text>
<text text-anchor="middle" x="247.5" y="-215.8" font-family="Times,serif" font-size="14.00">samples = 20510</text>
<text text-anchor="middle" x="247.5" y="-200.8" font-family="Times,serif" font-size="14.00">value = [13115, 7395]</text>
</g>
<!-- 2&#45;&gt;3 -->
<g id="edge3" class="edge">
<title>2&#45;&gt;3</title>
<path fill="none" stroke="black" d="M313.01,-296.88C304.45,-287.89 295.09,-278.04 286.18,-268.68"/>
<polygon fill="black" stroke="black" points="288.59,-266.13 279.17,-261.3 283.52,-270.96 288.59,-266.13"/>
</g>
<!-- 4 -->
<g id="node9" class="node">
<title>4</title>
<polygon fill="none" stroke="black" points="529.5,-253.5 353.5,-253.5 353.5,-200.5 529.5,-200.5 529.5,-253.5"/>
<text text-anchor="middle" x="441.5" y="-238.3" font-family="Times,serif" font-size="14.00">gini = 0.349</text>
<text text-anchor="middle" x="441.5" y="-223.3" font-family="Times,serif" font-size="14.00">samples = 15161</text>
<text text-anchor="middle" x="441.5" y="-208.3" font-family="Times,serif" font-size="14.00">value = [11744, 3417]</text>
</g>
<!-- 2&#45;&gt;4 -->
<g id="edge8" class="edge">
<title>2&#45;&gt;4</title>
<path fill="none" stroke="black" d="M375.99,-296.88C386.97,-285.34 399.29,-272.39 410.25,-260.86"/>
<polygon fill="black" stroke="black" points="412.88,-263.18 417.23,-253.52 407.8,-258.35 412.88,-263.18"/>
</g>
<!-- 5 -->
<g id="node5" class="node">
<title>5</title>
<polygon fill="none" stroke="black" points="240.5,-157 56.5,-157 56.5,-89 240.5,-89 240.5,-157"/>
<text text-anchor="middle" x="148.5" y="-141.8" font-family="Times,serif" font-size="14.00">ALL_BUYINS_N &lt;= 0.5</text>
<text text-anchor="middle" x="148.5" y="-126.8" font-family="Times,serif" font-size="14.00">gini = 0.497</text>
<text text-anchor="middle" x="148.5" y="-111.8" font-family="Times,serif" font-size="14.00">samples = 2971</text>
<text text-anchor="middle" x="148.5" y="-96.8" font-family="Times,serif" font-size="14.00">value = [1368, 1603]</text>
</g>
<!-- 3&#45;&gt;5 -->
<g id="edge4" class="edge">
<title>3&#45;&gt;5</title>
<path fill="none" stroke="black" d="M215.36,-192.88C206.63,-183.89 197.07,-174.04 187.98,-164.68"/>
<polygon fill="black" stroke="black" points="190.3,-162.04 180.82,-157.3 185.27,-166.91 190.3,-162.04"/>
</g>
<!-- 6 -->
<g id="node8" class="node">
<title>6</title>
<polygon fill="none" stroke="black" points="434.5,-149.5 258.5,-149.5 258.5,-96.5 434.5,-96.5 434.5,-149.5"/>
<text text-anchor="middle" x="346.5" y="-134.3" font-family="Times,serif" font-size="14.00">gini = 0.442</text>
<text text-anchor="middle" x="346.5" y="-119.3" font-family="Times,serif" font-size="14.00">samples = 17539</text>
<text text-anchor="middle" x="346.5" y="-104.3" font-family="Times,serif" font-size="14.00">value = [11747, 5792]</text>
</g>
<!-- 3&#45;&gt;6 -->
<g id="edge7" class="edge">
<title>3&#45;&gt;6</title>
<path fill="none" stroke="black" d="M279.64,-192.88C290.85,-181.34 303.42,-168.39 314.61,-156.86"/>
<polygon fill="black" stroke="black" points="317.28,-159.13 321.73,-149.52 312.25,-154.26 317.28,-159.13"/>
</g>
<!-- 7 -->
<g id="node6" class="node">
<title>7</title>
<polygon fill="none" stroke="black" points="131,-53 0,-53 0,0 131,0 131,-53"/>
<text text-anchor="middle" x="65.5" y="-37.8" font-family="Times,serif" font-size="14.00">gini = 0.0</text>
<text text-anchor="middle" x="65.5" y="-22.8" font-family="Times,serif" font-size="14.00">samples = 453</text>
<text text-anchor="middle" x="65.5" y="-7.8" font-family="Times,serif" font-size="14.00">value = [0, 453]</text>
</g>
<!-- 5&#45;&gt;7 -->
<g id="edge5" class="edge">
<title>5&#45;&gt;7</title>
<path fill="none" stroke="black" d="M119.47,-88.95C111.52,-79.89 102.89,-70.07 94.91,-60.99"/>
<polygon fill="black" stroke="black" points="97.33,-58.44 88.1,-53.24 92.07,-63.06 97.33,-58.44"/>
</g>
<!-- 8 -->
<g id="node7" class="node">
<title>8</title>
<polygon fill="none" stroke="black" points="316,-53 149,-53 149,0 316,0 316,-53"/>
<text text-anchor="middle" x="232.5" y="-37.8" font-family="Times,serif" font-size="14.00">gini = 0.496</text>
<text text-anchor="middle" x="232.5" y="-22.8" font-family="Times,serif" font-size="14.00">samples = 2518</text>
<text text-anchor="middle" x="232.5" y="-7.8" font-family="Times,serif" font-size="14.00">value = [1368, 1150]</text>
</g>
<!-- 5&#45;&gt;8 -->
<g id="edge6" class="edge">
<title>5&#45;&gt;8</title>
<path fill="none" stroke="black" d="M177.88,-88.95C186.01,-79.8 194.84,-69.87 202.98,-60.71"/>
<polygon fill="black" stroke="black" points="205.6,-63.04 209.62,-53.24 200.36,-58.39 205.6,-63.04"/>
</g>
</g>
</svg>
